<?xml version="1.0" encoding="UTF-8"?>
<svg id="Layer_1" xmlns="http://www.w3.org/2000/svg" version="1.1" viewBox="0 0 300 300">
  <!-- Generator: Adobe Illustrator 29.8.1, SVG Export Plug-In . SVG Version: 2.1.1 Build 2)  -->
  <defs>
    <style>
      .st0 {
        fill: #8fc156;
      }

      .st1 {
        fill: #0d4d91;
      }

      .st2 {
        fill: #10b6ec;
      }

      .st3 {
        fill: #f0b243;
      }
    </style>
  </defs>
  <path class="st1" d="M129.22,217.07c-25.97,0-56.43-20.37-38.08-64.86,20.88-50.63,85.83-83.54,112.45-83.54,6.66,0,10.58,2.39,10.36,7.12-.34,6.98-5.94,15.85.9,21.43,8.57,6.96,33.73-4.31,36.17-22.11,1.6-11.78-14.5-23.84-46.89-23.84-74.58,0-148.2,43.53-170.15,101.87-19.6,52.08,11.32,96.56,70.58,96.56,53.45,0,89.31-32.56,101.8-72.26l3.08-9.97h-66.57c-3.23,13.13.62,28.53,21.02,28.53,5.65,0,11.18-1.39,16.03-4.1.5-.28.7.1.39.41-9.39,12.01-28.22,24.76-51.08,24.76h0Z"/>
  <path class="st0" d="M200.3,224.37c18.38,3.21,31.08-4.48,37.02-18.96,2.48-6.05,4.65-13.4,6.26-21.23,2.55-12.35-11.58-16.3-26.58-16.55l-16.7,56.74h0Z"/>
  <path class="st2" d="M281.93,161.36c2.75-16.07-3.92-27.78-18.74-29.37-6.19-.66-12.42-1.14-20.69-.5-13.05,1.02-17.37,7.12-23.64,29.86h63.07Z"/>
  <path class="st3" d="M190.68,125.25c-2.22,5.35-4.78,12.77-6.09,19.79-2.06,11.07,9.4,16.01,26.68,16.32l15.89-53.97c-18.73-3.98-31.09,4.88-36.48,17.85h0Z"/>
</svg>