<svg xmlns="http://www.w3.org/2000/svg" xml:space="preserve" width="322.74527" height="347.82971" viewBox="0 0 322.74527 347.82972"><defs><clipPath id="a" clipPathUnits="userSpaceOnUse"><path d="M0 283.46h283.46V0H0Z"/></clipPath></defs><g clip-path="url(#a)" style="stroke-width:.702003" transform="matrix(1.89933 0 0 -1.89933 -107.7 443.777)"><g style="stroke-width:.702003"><path d="M0 0c-26.488 0-50.137 12.147-65.688 31.172-9.091-2.442-14.209-4.458-14.209-4.458v-31.86q1.085.292 2.163.563c.233.059.464.112.697.17.484.118.968.238 1.45.35q.41.095.822.185.655.15 1.308.292c.29.063.577.12.865.18q.626.132 1.247.256.444.085.884.168.607.117 1.21.226.447.08.893.155.592.103 1.181.201.45.071.897.139.58.091 1.156.177a161 161 0 0 0 2.93.39q.559.069 1.114.131.45.05.897.097l1.092.111q.448.042.894.083.537.047 1.072.09.446.037.891.069a133 133 0 0 0 1.939.127 125 125 0 0 0 2.924.134q.441.015.878.028.498.013.992.022l.871.015q.49.006.977.007.283.003.564.005l.375-.002.476-.003q.625-.004 1.243-.015.185-.002.368-.006a113 113 0 0 0 1.56-.04q.16-.005.32-.012a100 100 0 0 0 1.696-.07q.626-.03 1.244-.065l.286-.017q.754-.045 1.497-.099l.337-.026a86 86 0 0 0 1.579-.129q.645-.056 1.281-.119l.167-.016q.723-.071 1.434-.151l.333-.038a169 169 0 0 0 1.471-.177 125 125 0 0 0 2.736-.375l.313-.047a96 96 0 0 0 1.368-.214q1.32-.214 2.585-.449l.285-.052q.522-.098 1.033-.198l.232-.046q.629-.124 1.243-.252l.028-.005q.584-.122 1.155-.248l.251-.055q.51-.112 1.008-.227l.156-.036q.587-.136 1.158-.273l.081-.021q.516-.124 1.018-.252l.216-.054a106 106 0 0 0 2.127-.562l.1-.027q.462-.127.91-.254l.177-.051a117 117 0 0 0 2.84-.853l.14-.043a106 106 0 0 0 1.815-.593l.71-.241.106-.038a93 93 0 0 0 1.483-.526l.102-.037q.311-.113.608-.225l.075-.028q.663-.247 1.246-.477l.09-.036q.26-.1.505-.2l.049-.019q.275-.112.53-.216l.005-.002a63 63 0 0 0 .932-.391l.03-.013q.208-.089.393-.17l.036-.015.307-.136.06-.027.281-.126.01-.005.255-.117.041-.019.172-.08.04-.018.154-.074.002-.001.117-.056.025-.013.05-.024.015-.007.018-.01a82 82 0 0 0 1.629.74q.659.293 1.317.574l.238.101a106 106 0 0 0 3.004 1.215q.665.257 1.33.503l.184.066q.637.236 1.276.459l.154.056q.673.234 1.343.459l.248.083q.677.224 1.351.438l.099.031a115 115 0 0 0 1.492.458q.671.2 1.339.39.11.03.22.063 1.377.387 2.743.732l.188.048a96 96 0 0 0 1.519.368q1.37.322 2.729.605l.191.04a98 98 0 0 0 1.462.29q.667.129 1.33.247l.055.01q.67.12 1.338.229l.186.031q.665.11 1.326.209l.068.011q.652.098 1.302.189.058.006.116.016.65.09 1.297.171l.185.024q1.311.163 2.606.293l.16.017q.63.063 1.254.118l.18.017q1.27.112 2.519.193l.194.013q.608.04 1.209.071l.163.009q.593.032 1.179.057l.07.004q.6.025 1.194.043l.213.007q.584.018 1.163.031l.142.002q.553.01 1.098.017l.141.002q.57.006 1.134.006l.1.001.158-.001.576-.002L47-.542l.613-.007.231-.003q.845-.013 1.674-.036l.23-.007.588-.019.288-.01.824-.033.541-.026q.133-.005.265-.012l.621-.033.171-.009.784-.046.185-.013a102 102 0 0 0 1.354-.094q.15-.01.3-.022l.459-.036.303-.025a65 65 0 0 0 .742-.064l.603-.055.168-.015.667-.065.283-.029.426-.044.316-.034.389-.043.315-.035.382-.045.313-.036.38-.047.3-.036q.316-.04.628-.081l.284-.038.37-.048.321-.044.32-.045.327-.046.306-.044.327-.049.293-.044.325-.049q.144-.021.285-.045.32-.049.632-.099l.232-.037.339-.056.243-.041.333-.057q.117-.018.232-.04.17-.028.334-.057l.217-.038q.168-.031.334-.06l.199-.037q.617-.111 1.203-.226l.121-.022.336-.067q.086-.015.169-.033l.316-.062.172-.035.315-.065.147-.03.322-.068.091-.018q.56-.119 1.085-.236l.102-.022.301-.068.114-.026.292-.066.109-.026.376-.087q.5-.118.956-.23l.016-.004.263-.065.085-.022q.12-.029.237-.059l.097-.025.22-.055.096-.026.215-.055.055-.014a65 65 0 0 0 .756-.202l.18-.049.074-.021.167-.045.071-.021.155-.043.07-.02.146-.041.009-.002.305-.089.055-.016.106-.031.065-.02q.052-.014.101-.03l.053-.016.091-.027.052-.016.081-.024.048-.015.158-.048.083-.027.038-.012.034-.011.028-.009.039-.012.036-.011v31.86a236 236 0 0 1-13.869 4.272C49.986 12.067 26.403 0 0 0" style="fill:#004ea2;fill-opacity:1;fill-rule:nonzero;stroke:none;stroke-width:.702003" transform="translate(141.749 63.806)"/></g><g style="stroke-width:.702003"><path d="m0 0-.036.012-.016.005-.022.006-.029.009-.034.012-.038.012-.033.01-.05.016-.096.029-.062.02-.048.015-.081.024-.052.016-.091.027-.052.016-.102.03q-.03.01-.064.019l-.107.032-.054.015q-.144.043-.306.089l-.009.002-.145.041-.071.021-.155.043-.07.02-.168.046-.073.02-.181.049-.058.016q-.327.09-.698.186l-.055.014-.215.056-.096.025-.22.056q-.048.013-.097.024-.116.03-.237.06-.042.011-.085.021l-.263.066-.016.004q-.456.112-.956.229l-.093.023-.283.065-.109.025-.292.067-.114.025-.301.069-.102.022q-.524.116-1.085.235l-.091.019-.322.067-.147.031-.315.064-.172.035-.315.063-.169.033-.336.066-.121.023a86 86 0 0 1-1.403.262l-.334.06-.217.038-.334.058-.232.04-.333.056-.243.041-.339.056-.231.037q-.312.05-.632.1l-.285.045-.326.049-.293.043a28 28 0 0 1-.632.093l-.328.046q-.159.023-.32.045l-.321.044-.369.049-.284.038-.628.08-.301.036-.38.047q-.157.019-.313.036l-.381.045-.316.035-.388.043-.317.034-.426.044-.283.03-.667.064-.168.016q-.3.028-.602.054-.134.013-.269.024l-.474.041-.302.024-.459.036-.301.023q-.242.019-.486.036l-.282.02-.586.038-.185.012q-.39.024-.783.046l-.172.01-.62.032-.266.013-.541.025-.289.012q-.266.012-.535.021l-.287.01-.589.02-.23.007q-.828.022-1.673.036l-.232.003q-.304.005-.612.006l-.288.002-.576.002-.159.001-.099-.001q-.565 0-1.135-.005l-.141-.002q-.545-.006-1.097-.017l-.143-.003q-.579-.012-1.163-.03l-.213-.007q-.594-.019-1.193-.044l-.071-.004q-.586-.025-1.178-.057-.082-.002-.163-.008-.603-.032-1.209-.072l-.195-.012q-1.25-.082-2.518-.194l-.181-.016q-.625-.055-1.254-.118l-.16-.017q-1.294-.131-2.605-.294l-.186-.023a160 160 0 0 1-1.297-.171l-.116-.017q-.649-.09-1.302-.188l-.068-.011a125 125 0 0 1-2.85-.47l-.054-.01a94 94 0 0 1-1.331-.247q-.064-.011-.127-.024a93 93 0 0 1-1.334-.266l-.192-.04q-1.358-.282-2.728-.604l-.181-.042q-.668-.159-1.339-.326l-.187-.048q-1.367-.346-2.744-.733l-.219-.062a101 101 0 0 1-1.34-.391q-.09-.026-.181-.054a85 85 0 0 1-1.31-.404l-.1-.03a117 117 0 0 1-2.941-.981l-.155-.055q-.637-.225-1.276-.459l-.184-.067q-.664-.246-1.33-.503l-.267-.104a90 90 0 0 1-2.737-1.11q-.119-.052-.238-.102a94 94 0 0 1-1.587-.694 96 96 0 0 1-1.359-.619l-.018.009-.015.007-.049.025-.026.012-.116.057-.003.001-.154.073-.04.019-.172.08-.041.018-.255.117-.01.005-.28.126-.06.028-.308.135-.035.015-.393.171-.031.013-.392.166-.08.034q-.221.092-.46.19l-.005.002q-.254.106-.529.216l-.05.02-.505.2-.09.036q-.583.228-1.246.476l-.075.029q-.296.11-.608.224l-.102.038q-.704.256-1.483.526l-.106.037-.709.241-.105.035q-.82.276-1.711.558l-.14.044q-.398.126-.809.251l-.107.033q-.928.284-1.924.568l-.177.051a138 138 0 0 1-2.077.57l-.077.019a107 107 0 0 1-2.216.561l-.082.02a135 135 0 0 1-2.322.536l-.251.056q-.57.125-1.154.247l-.029.006q-.613.128-1.242.252l-.232.046-1.033.197-.286.053q-1.265.234-2.585.448l-.3.049q-.53.084-1.067.166l-.314.047q-1.343.2-2.736.375l-.361.045q-.551.068-1.11.131l-.332.039q-.71.079-1.435.151l-.167.016a100 100 0 0 1-1.693.154q-.58.05-1.167.094l-.337.025q-.743.054-1.496.1l-.287.016q-.618.036-1.243.066l-.453.021a100 100 0 0 1-1.244.049q-.16.007-.32.012-.774.025-1.56.04-.184.004-.367.006-.619.01-1.244.014l-.476.003-.375.002q-.281-.002-.564-.005-.486-.001-.977-.007-.434-.005-.871-.014a112 112 0 0 1-1.869-.05q-.504-.018-1.011-.038l-.883-.041q-.514-.026-1.031-.056-.442-.025-.888-.054a77 77 0 0 1-1.051-.073 94 94 0 0 1-.891-.068q-.535-.043-1.071-.091-.447-.04-.895-.083-.544-.053-1.092-.11l-.897-.097q-.554-.064-1.114-.132-.447-.053-.896-.111-.566-.074-1.135-.153l-.898-.125-1.157-.177q-.448-.068-.897-.14-.589-.098-1.181-.2-.445-.077-.893-.155-.603-.11-1.21-.227c-.294-.056-.588-.109-.883-.168-.415-.081-.831-.169-1.248-.256q-.431-.087-.865-.179c-.434-.093-.871-.194-1.308-.292q-.41-.092-.822-.185c-.482-.112-.965-.232-1.449-.351-.233-.057-.465-.111-.698-.17q-1.078-.27-2.163-.563v31.86s5.118 2.017 14.21 4.458c15.551-19.024 39.199-31.172 65.687-31.172 26.403 0 49.986 12.068 65.539 30.987A237 237 0 0 0 0 31.86Zm-161.511 89.946c0 45.345 36.759 82.103 82.103 82.103 45.345 0 82.104-36.758 82.104-82.103S-34.063 7.843-79.408 7.843s-82.103 36.759-82.103 82.103M-11.998 38.41C-1.039 52.718 5.474 70.612 5.474 90.027c0 46.924-38.039 84.963-84.963 84.963s-84.963-38.039-84.963-84.963c0-19.344 6.466-37.177 17.353-51.46-8.317-2.29-12.99-4.118-13.194-4.198l-1.708-.673V-3.521l3.399.918a123.1 123.1 0 0 0 32.105 4.278c27.234 0 45.693-9.138 45.877-9.23l1.166-.588 1.184.552c13.539 6.307 28.624 9.504 44.84 9.504 18.804 0 32.449-4.429 32.583-4.474l3.541-1.167L2.696 0v33.788l-1.824.623a240 240 0 0 1-12.87 3.999" style="fill:#fff;fill-opacity:1;fill-rule:nonzero;stroke:none;stroke-width:.702003" transform="translate(221.156 58.66)"/></g><g style="stroke-width:.702003"><path d="M0 0c0 4.815.585 9.493 1.681 13.97h20.267A37.8 37.8 0 0 1 33.184-4.588H.178A60 60 0 0 0 0 0m46.543-35.585v4.751h25.678v-10.668h-5.975v5.917zm12.48 11.252v10.292h5.975v-5.349h1.248v5.349h5.975v-16.166h-5.975v6.395h-1.248v-6.395h-5.975v3.56l-1.815-1.946q-3.253 2.002-5.219 3.885-.227.238-.416.448-2.193-2.9-5.446-4.99l-3.781 3.226q5.333 3.735 5.786 8.905v2.63h5.975V-17q.002-4.018 4.916-7.333m3.993 38.362c.818 2.845 1.268 5.664 1.339 8.456v8.158h-18.53v4.751h24.883V24.697a38 38 0 0 0-1.5-10.668h3.429V9.277H44.464v4.752h6.504v9.801h6.353v-9.801zm-4.441 42.625c18.341 0 33.208-14.867 33.208-33.208h-8.945c0 13.401-10.863 24.264-24.263 24.264S34.312 36.847 34.312 23.446c0-8.763 4.646-16.441 11.609-20.705A24.15 24.15 0 0 1 58.575-.817c4.637 0 8.969 1.301 12.654 3.558a32.4 32.4 0 0 0 8.251-5.095c7.001-5.934 11.446-14.79 11.446-24.687 0-17.867-14.484-32.351-32.351-32.351S26.224-44.908 26.224-27.041c0 1.497.104 2.969.3 4.412h9.23a23.3 23.3 0 0 1-.42-4.412c0-12.835 10.406-23.241 23.241-23.241 12.836 0 23.242 10.406 23.242 23.241 0 8.283-4.334 15.552-10.858 19.668A23.1 23.1 0 0 1 58.575-3.8c-4.553 0-8.799-1.31-12.385-3.573a33.2 33.2 0 0 0-8.52 5.019c-7.504 6.089-12.302 15.384-12.302 25.8 0 18.341 14.867 33.208 33.207 33.208m56.894-42.684A58.7 58.7 0 0 0 117.151 0c0-14.709-5.424-28.153-14.379-38.44v33.852H83.967A37.8 37.8 0 0 1 95.203 13.97ZM58.575-62.497c34.516 0 62.497 27.981 62.497 62.497S93.091 62.497 58.575 62.497-3.921 34.516-3.921 0s27.98-62.497 62.496-62.497" style="fill:#fff;fill-opacity:1;fill-rule:nonzero;stroke:none;stroke-width:.702003" transform="translate(83.173 148.605)"/></g><g style="stroke-width:.702003"><path d="M0 0q-1.056 0-1.44-.919-.352-.863-.352-3.168 0-2.248.352-3.11.384-.933 1.44-.934 1.056 0 1.458.934.402.876.402 3.11 0 2.29-.402 3.168Q1.056 0 0 0" style="fill:#231916;fill-opacity:1;fill-rule:nonzero;stroke:none;stroke-width:.702003" transform="translate(136.313 81.846)"/></g><g style="stroke-width:.702003"><path d="M0 0a4.3 4.3 0 0 1-.904-1.543 5 5 0 0 1-.22-1.808A4.1 4.1 0 0 1-.66-5.053q.903-1.725 2.74-2.261t3.653.416q.764.4 1.314 1.057.566.665.843 1.511.358.986.303 1.871a4.6 4.6 0 0 1-.534 1.763Q7.243.098 6.601.656a4 4 0 0 1-1.534.811 4.3 4.3 0 0 1-1.845.181 4.7 4.7 0 0 1-1.733-.518A5.4 5.4 0 0 1 0 0" style="fill:#231916;fill-opacity:1;fill-rule:nonzero;stroke:none;stroke-width:.702003" transform="translate(201.946 184.942)"/></g><g style="stroke-width:.702003"><path d="M0 0c34.516 0 62.497-27.98 62.497-62.497S34.516-124.993 0-124.993s-62.497 27.98-62.497 62.496S-34.516 0 0 0m-65.482-44.994a6.7 6.7 0 0 0-2.377-.491 7.6 7.6 0 0 0-2.496.426 6.8 6.8 0 0 0-2.279 1.318 6.6 6.6 0 0 0-1.573 2.149 6.5 6.5 0 0 0-.659 2.416 6.6 6.6 0 0 0 .372 2.497 6.8 6.8 0 0 0 1.263 2.226 6.7 6.7 0 0 0 2.044 1.535 6.55 6.55 0 0 0 2.537.69 6.5 6.5 0 0 0 2.611-.356 7.1 7.1 0 0 0 2.264-1.258 6.4 6.4 0 0 0 1.554-1.887q.677-1.311.798-2.646a6.45 6.45 0 0 0-.342-2.727 6.2 6.2 0 0 0-1.433-2.349 6.9 6.9 0 0 0-2.284-1.543m.557-10.151a6.2 6.2 0 0 0-.878-2.607q-.7-1.153-1.887-2.011a6.8 6.8 0 0 0-2.209-1.003 7.5 7.5 0 0 0-2.529-.136q-1.353.15-2.514.781a6.7 6.7 0 0 0-2.011 1.731 6.15 6.15 0 0 0-1.188 2.264q-.318 1.196-.161 2.619.214 1.935 1.302 3.305 1.106 1.369 2.978 1.994l-.271-2.449a3.96 3.96 0 0 1-1.383-1.373q-.486-.796-.605-1.857a4.6 4.6 0 0 1 .123-1.713 4.2 4.2 0 0 1 .821-1.512q.576-.74 1.427-1.199a4.7 4.7 0 0 1 1.726-.538 5.4 5.4 0 0 1 1.868.106q.909.228 1.611.775.723.578 1.193 1.376a4.2 4.2 0 0 1 .566 1.671q.148 1.336-.425 2.422-.602 1.143-1.982 1.988l-.474-4.281-1.97.218.747 6.748q3.068-.479 4.765-2.539 1.666-2.022 1.36-4.78m-3.787 31.346q.733 1.308 1.993 1.648 1.273.332 2.811-.412l-.911-1.624q-.73.352-1.341.181-.603-.156-.931-.743-.37-.66-.179-1.303.211-.611.917-1.008.27-.151.476-.208a1 1 0 0 1 .502.015q.329.091.698.398.232.166.709.629l.703.653q1.021.87 2.154.985 1.148.145 2.29-.496 1.623-.911 2.122-2.416.49-1.521-.37-3.054-.81-1.442-2.302-1.81-1.514-.375-3.122.528l.886 1.578q.903-.468 1.652-.296t1.171.924q.456.811.229 1.57-.225.76-1.037 1.215-.856.481-1.532.228-.48-.186-1.392-1.036a6.6 6.6 0 0 0-1.165-.948 4.6 4.6 0 0 0-1.432-.579 2.6 2.6 0 0 0-1.064.005 3.6 3.6 0 0 0-1.023.397q-1.472.825-1.884 2.204-.422 1.362.372 2.775m7.693 10.821 13.284-4.098-1.369-1.729-3.772 1.205-3.016-3.81 2.006-3.435-1.326-1.675-7.005 12.029zm10.526 10.802 1.272-1.381-3.549-3.269 2.463-2.674 3.55 3.269 1.26-1.37-3.548-3.269 2.463-2.674 3.549 3.269 1.319-1.433-5.032-4.634-8.779 9.531zm4.487 3.417 3.589-5.25.324 7.925 2.006 1.37-.499-8.126 7.882-2.523-2.062-1.41-7.476 2.508 3.549-5.193-1.65-1.127L-47.656.113zm23.218 11.509 1.337-5.012 4.895 1.305-1.337 5.013 1.915.51 3.34-12.521-1.915-.51-1.488 5.577-4.895-1.305 1.488-5.578-1.948-.52-3.34 12.521zm12.794 2.681 1.788-12.835-1.997-.278-1.788 12.835zm4.411-3.098q.537 1.216 1.535 2.164a6.1 6.1 0 0 0 2.143 1.396q1.161.429 2.592.406 1.947-.031 3.413-.986 1.467-.97 2.265-2.777l-2.464.04a3.97 3.97 0 0 1-1.496 1.248q-.839.41-1.906.427a4.6 4.6 0 0 1-1.694-.282 4.2 4.2 0 0 1-1.429-.96 4.5 4.5 0 0 1-1.059-1.533 4.7 4.7 0 0 1-.374-1.77 5.4 5.4 0 0 1 .281-1.849q.312-.884.923-1.531a5 5 0 0 1 1.482-1.058 4.2 4.2 0 0 1 1.717-.407q1.344-.022 2.372.651 1.08.706 1.792 2.159l-4.307.07.032 1.982 6.789-.11q-.188-3.1-2.08-4.982Q3.088 2.782.313 2.828a6.2 6.2 0 0 0-2.678.629 6.9 6.9 0 0 0-2.179 1.69 6.8 6.8 0 0 0-1.207 2.105 7.6 7.6 0 0 0-.373 2.505 6.8 6.8 0 0 0 .541 2.576m16.897 3.023 1.976-.405-1.043-5.081 4.962-1.019 1.043 5.081 1.942-.398L17.588.839l-1.941.399 1.16 5.655-4.963 1.018-1.16-5.655-1.976.406zM31.558-.535l1.563-.913q-.484-.895-.324-1.647t.904-1.187q.802-.469 1.566-.256.763.213 1.233 1.016.495.849.253 1.528-.178.483-1.012 1.41a6.6 6.6 0 0 0-.927 1.18 4.7 4.7 0 0 0-.555 1.442q-.098.516.024 1.065.117.509.413 1.015.852 1.458 2.236 1.847 1.37.397 2.769-.42 1.295-.756 1.613-2.021.31-1.278-.46-2.804l-1.607.939q.363.725.203 1.338-.147.604-.727.943-.654.383-1.3.201-.615-.2-1.023-.899a2 2 0 0 1-.216-.472 1 1 0 0 1 .005-.502q.086-.33.387-.705.162-.235.617-.72l.641-.714q.851-1.036.948-2.17.125-1.15-.535-2.282-.94-1.606-2.453-2.08-1.528-.463-3.046.423-1.428.834-1.771 2.332-.349 1.52.581 3.113m12.057-1.1q1.17.614 2.568.721a6.7 6.7 0 0 0 2.505-.263 6.7 6.7 0 0 0 2.211-1.254q1.515-1.276 2.052-2.967.537-1.715-.02-3.634l-1.779 1.499a4.1 4.1 0 0 1-.34 1.976q-.417.87-1.261 1.58a4.6 4.6 0 0 1-1.491.851q-.855.27-1.714.159a4.5 4.5 0 0 1-1.79-.52 4.7 4.7 0 0 1-1.407-1.136 5.2 5.2 0 0 1-.938-1.62 4.3 4.3 0 0 1-.252-1.771q.066-.912.468-1.745A4.2 4.2 0 0 1 43.5-11.16a4.5 4.5 0 0 1 1.756-.938 4.06 4.06 0 0 1 1.887-.034l1.845-1.555q-1.818-.767-3.564-.512-1.745.23-3.233 1.484a6.2 6.2 0 0 0-1.666 2.169 6.8 6.8 0 0 0-.634 2.697 6.7 6.7 0 0 0 .395 2.394q.449 1.177 1.293 2.178a6.7 6.7 0 0 0 2.036 1.642m14.491-7.95 1.268-1.568-4.035-3.261 3.186-3.94 4.033 3.261 1.246-1.541-10.077-8.147-1.246 1.541 4.489 3.63-3.185 3.94-4.49-3.63-1.267 1.568zm7.801-13.175a6.5 6.5 0 0 0 2.211-1.177 6.6 6.6 0 0 0 1.563-1.982 6.8 6.8 0 0 0 .756-2.445 6.7 6.7 0 0 0-.284-2.541 6.5 6.5 0 0 0-1.236-2.32 6.5 6.5 0 0 0-2.049-1.657 7.1 7.1 0 0 0-2.468-.787 6.5 6.5 0 0 0-2.439.162q-1.418.406-2.474 1.234a6.4 6.4 0 0 0-1.751 2.117 6.2 6.2 0 0 0-.729 2.653q-.063 1.348.443 2.722a6.7 6.7 0 0 0 1.271 2.066 7.5 7.5 0 0 0 2.022 1.526 6.8 6.8 0 0 0 2.521.756 6.6 6.6 0 0 0 2.643-.327m7.129-15.527a6.5 6.5 0 0 0 1.895-1.637 6.6 6.6 0 0 0 1.085-2.28 6.7 6.7 0 0 0 .194-2.551 6.7 6.7 0 0 0-.839-2.415 6.6 6.6 0 0 0-1.72-1.989 6.5 6.5 0 0 0-2.367-1.161 7.1 7.1 0 0 0-2.58-.22 6.4 6.4 0 0 0-2.342.699q-1.293.71-2.14 1.751a6.45 6.45 0 0 0-1.237 2.453 6.2 6.2 0 0 0-.122 2.749q.237 1.329 1.035 2.555a6.7 6.7 0 0 0 1.698 1.734 7.5 7.5 0 0 0 2.31 1.039 6.8 6.8 0 0 0 2.626.179 6.6 6.6 0 0 0 2.504-.906m4.982-16.52-10.971-.952.362-4.155-1.941-.168-.535 6.163 12.911 1.121zm-59.026-83.06q-1.19-1.216-3.117-1.216-1.642 0-2.713.764-1.09.762-1.224 2.063h2.497v-.014q.066-.55.469-.834.368-.254.988-.254.871 0 1.407.665.654.777.654 2.389l-.017.057q-.402-.51-1.105-.735-.57-.2-1.324-.199-1.776 0-2.832 1.061-.988.989-.988 2.545 0 2.008 1.223 3.083 1.139.975 3.083.975 1.524 0 2.53-.678.854-.58 1.323-1.641.368-.835.503-1.965.084-.68.083-1.655 0-2.955-1.44-4.411m-10.405.141q-1.055-1.4-3.3-1.4t-3.3 1.4q-1.072 1.4-1.072 4.383 0 3.012 1.072 4.426 1.055 1.371 3.3 1.372 2.246 0 3.3-1.372 1.073-1.4 1.073-4.426 0-2.983-1.073-4.383m-10.722 0q-1.055-1.4-3.301-1.4-2.244 0-3.3 1.4-1.072 1.4-1.072 4.383 0 3.012 1.072 4.426 1.056 1.371 3.3 1.372 2.246 0 3.301-1.372 1.072-1.4 1.072-4.426 0-2.983-1.072-4.383m-9.7-1.131h-8.628q.083 1.287.468 2.022.654 1.23 2.497 2.46l.251.185q1.759 1.116 2.228 1.583.705.679.704 1.569 0 .707-.435 1.16-.487.523-1.341.523-1.14 0-1.558-.791-.235-.453-.251-1.386h-2.396q0 2.389 1.625 3.393 1.039.621 2.496.622 1.877 0 3.05-.92 1.256-.975 1.256-2.671 0-1.33-.854-2.305-.52-.607-1.726-1.386l-.67-.424q-1.14-.75-1.491-1.018-.537-.41-.687-.721h5.462zM0-144.6c45.344 0 82.104 36.759 82.104 82.103 0 45.345-36.76 82.104-82.104 82.104s-82.104-36.759-82.104-82.104S-45.345-144.6 0-144.6" style="fill:#231916;fill-opacity:1;fill-rule:nonzero;stroke:none;stroke-width:.702003" transform="translate(141.749 211.102)"/></g><g style="stroke-width:.702003"><path d="m0 0 2.536-4.183 2.107 2.662z" style="fill:#231916;fill-opacity:1;fill-rule:nonzero;stroke:none;stroke-width:.702003" transform="translate(82.227 195.685)"/></g><g style="stroke-width:.702003"><path d="M0 0q-.814.282-1.671.231A4.5 4.5 0 0 1-3.349-.19q-.963-.415-1.57-1.062-.591-.653-.918-1.597a4.6 4.6 0 0 1-.259-1.697q.045-.873.461-1.673a4.3 4.3 0 0 1 1.133-1.469 4.7 4.7 0 0 1 1.564-.905 5.4 5.4 0 0 1 1.844-.31 4.3 4.3 0 0 1 1.743.4 5 5 0 0 1 1.468 1.078q.634.674.922 1.505.636 1.84-.232 3.545Q1.938-.671 0 0" style="fill:#231916;fill-opacity:1;fill-rule:nonzero;stroke:none;stroke-width:.702003" transform="translate(75.023 176.585)"/></g><g style="stroke-width:.702003"><path d="M0 0a4.3 4.3 0 0 1-1.224-1.305 5 5 0 0 1-.616-1.714 4.2 4.2 0 0 1 .075-1.762q.498-1.883 2.171-2.813t3.655-.405q.833.221 1.515.74.7.525 1.156 1.287.57.882.712 1.757.125.872-.13 1.838a4.6 4.6 0 0 1-.732 1.553Q6.057-.125 5.267.307a4.3 4.3 0 0 1-1.76.586A4.7 4.7 0 0 1 1.703.771 5.4 5.4 0 0 1 0 0" style="fill:#231916;fill-opacity:1;fill-rule:nonzero;stroke:none;stroke-width:.702003" transform="translate(208.464 170.767)"/></g><g style="stroke-width:.702003"><path d="M0 0q-.687 0-1.14-.354-.653-.508-.653-1.625 0-1.245.587-1.768.435-.41 1.29-.41.736 0 1.239.453.62.536.62 1.556 0 1.03-.503 1.583Q.955 0 0 0" style="fill:#231916;fill-opacity:1;fill-rule:nonzero;stroke:none;stroke-width:.702003" transform="translate(157.725 81.803)"/></g><g style="stroke-width:.702003"><path d="M0 0q-1.055 0-1.44-.919-.352-.863-.352-3.168 0-2.248.352-3.11.385-.933 1.44-.934 1.056 0 1.458.934.403.876.402 3.11 0 2.29-.402 3.168Q1.056 0 0 0" style="fill:#231916;fill-opacity:1;fill-rule:nonzero;stroke:none;stroke-width:.702003" transform="translate(147.035 81.846)"/></g><g style="stroke-width:.702003"><path d="M0 0a33.2 33.2 0 0 1 8.521-5.019 23.1 23.1 0 0 0 12.384 3.573c4.553 0 8.8-1.31 12.385-3.573 6.523-4.116 10.857-11.386 10.857-19.668 0-12.836-10.406-23.241-23.242-23.241S-2.336-37.523-2.336-24.687c0 1.508.146 2.982.42 4.411h-9.23a33 33 0 0 1-.3-4.411c0-17.867 14.484-32.352 32.351-32.352s32.351 14.485 32.351 32.352c0 9.896-4.445 18.753-11.446 24.687a32.4 32.4 0 0 1-8.251 5.095 24.14 24.14 0 0 0-12.654-3.558A24.15 24.15 0 0 0 8.251 5.095C1.288 9.359-3.358 17.037-3.358 25.8c0 13.4 10.863 24.263 24.263 24.263S45.168 39.2 45.168 25.8h8.945c0 18.34-14.867 33.207-33.208 33.207S-12.302 44.14-12.302 25.8C-12.302 15.383-7.504 6.088 0 0" style="fill:#004ea2;fill-opacity:1;fill-rule:nonzero;stroke:none;stroke-width:.702003" transform="translate(120.843 146.251)"/></g><g style="stroke-width:.702003"><path d="M0 0h-20.267a58.7 58.7 0 0 1-1.681-13.97q.001-2.317.178-4.588h33.006A37.8 37.8 0 0 0 0 0" style="fill:#004ea2;fill-opacity:1;fill-rule:nonzero;stroke:none;stroke-width:.702003" transform="translate(105.121 162.575)"/></g><g style="stroke-width:.702003"><path d="M0 0h18.805v-33.852c8.955 10.288 14.379 23.731 14.379 38.44 0 4.815-.586 9.493-1.682 13.97H11.235A37.8 37.8 0 0 0 0 0" style="fill:#004ea2;fill-opacity:1;fill-rule:nonzero;stroke:none;stroke-width:.702003" transform="translate(167.14 144.017)"/></g><g style="stroke-width:.702003"><path d="M0 0v-9.801h-6.504v-4.752h28.173v4.752h-3.43A38 38 0 0 1 19.74.867v10.697H-5.143V6.813h18.53v-8.158c-.072-2.792-.521-5.611-1.339-8.456H6.353V0Z" style="fill:#231916;fill-opacity:1;fill-rule:nonzero;stroke:none;stroke-width:.702003" transform="translate(134.142 172.435)"/></g><g style="stroke-width:.702003"><path d="M0 0v10.668h-25.678V5.917h19.702V0Z" style="fill:#231916;fill-opacity:1;fill-rule:nonzero;stroke:none;stroke-width:.702003" transform="translate(155.394 107.103)"/></g><g style="stroke-width:.702003"><path d="M0 0v-2.63q-.453-5.17-5.786-8.905l3.782-3.227q3.252 2.091 5.445 4.991.19-.21.416-.449 1.966-1.884 5.219-3.884l1.815 1.946v-3.56h5.975v6.395h1.248v-6.395h5.975V.448h-5.975v-5.349h-1.248V.448h-5.975V-9.845Q5.977-6.528 5.975-2.511V0Z" style="fill:#231916;fill-opacity:1;fill-rule:nonzero;stroke:none;stroke-width:.702003" transform="translate(131.305 134.116)"/></g><g style="stroke-width:.702003"><path d="m0 0-.747-6.748 1.97-.218.474 4.281q1.38-.846 1.982-1.987.573-1.087.425-2.423a4.2 4.2 0 0 0-.566-1.671 5 5 0 0 0-1.193-1.376 4.3 4.3 0 0 0-1.612-.775 5.4 5.4 0 0 0-1.867-.105 4.7 4.7 0 0 0-1.726.537 4.5 4.5 0 0 0-1.428 1.199 4.2 4.2 0 0 0-.82 1.512 4.6 4.6 0 0 0-.123 1.713q.118 1.061.605 1.857a3.95 3.95 0 0 0 1.383 1.373l.271 2.449q-1.872-.624-2.978-1.993-1.087-1.371-1.302-3.306-.157-1.422.161-2.619a6.1 6.1 0 0 1 1.188-2.264 6.7 6.7 0 0 1 2.01-1.731 6.8 6.8 0 0 1 2.515-.781 7.6 7.6 0 0 1 2.529.136 6.8 6.8 0 0 1 2.209 1.003q1.187.858 1.887 2.011.719 1.168.878 2.608.305 2.757-1.36 4.779Q3.067-.479 0 0" style="fill:#fff;fill-opacity:1;fill-rule:nonzero;stroke:none;stroke-width:.702003" transform="translate(70.699 163.275)"/></g><g style="stroke-width:.702003"><path d="M0 0a4.14 4.14 0 0 0-.922-1.504 5 5 0 0 0-1.467-1.079 4.3 4.3 0 0 0-1.743-.4 5.4 5.4 0 0 0-1.844.31 4.7 4.7 0 0 0-1.565.906A4.3 4.3 0 0 0-8.674-.299a4 4 0 0 0-.46 1.673 4.6 4.6 0 0 0 .259 1.697q.326.945.917 1.597.607.648 1.571 1.062a4.5 4.5 0 0 0 1.678.422 4.3 4.3 0 0 0 1.67-.232q1.938-.67 2.807-2.375Q.636 1.84 0 0m2.263 2.062q-.12 1.335-.798 2.646A6.4 6.4 0 0 1-.088 6.595a7.1 7.1 0 0 1-2.264 1.258q-1.302.45-2.612.356a6.5 6.5 0 0 1-2.536-.69 6.7 6.7 0 0 1-2.045-1.535 6.8 6.8 0 0 1-1.263-2.226 6.6 6.6 0 0 1-.371-2.497 6.5 6.5 0 0 1 .658-2.416 6.6 6.6 0 0 1 1.573-2.149 6.8 6.8 0 0 1 2.279-1.318 7.6 7.6 0 0 1 2.497-.426q1.232.03 2.376.491 1.347.573 2.285 1.543A6.2 6.2 0 0 1 1.922-.665q.467 1.352.341 2.727" style="fill:#fff;fill-opacity:1;fill-rule:nonzero;stroke:none;stroke-width:.702003" transform="translate(78.062 170.665)"/></g><g style="stroke-width:.702003"><path d="M0 0a3.6 3.6 0 0 1 1.022-.396 2.6 2.6 0 0 1 1.065-.005q.717.15 1.432.579.612.386 1.165.947.912.85 1.392 1.037.675.252 1.532-.228.812-.456 1.037-1.215T8.416-.852q-.423-.752-1.171-.923-.75-.173-1.653.295l-.885-1.578q1.607-.903 3.122-.528 1.491.368 2.301 1.811.861 1.533.37 3.053-.498 1.505-2.121 2.416-1.142.642-2.291.496-1.132-.115-2.153-.984l-.703-.653a7 7 0 0 0-.709-.63q-.37-.306-.698-.398a1 1 0 0 0-.502-.015 2.2 2.2 0 0 0-.476.208Q.14 2.115-.07 2.727q-.192.642.179 1.303.328.586.931.742.61.171 1.341-.18l.911 1.623Q1.755 6.96.48 6.627q-1.258-.34-1.992-1.648-.793-1.412-.373-2.774Q-1.472.827 0 0" style="fill:#fff;fill-opacity:1;fill-rule:nonzero;stroke:none;stroke-width:.702003" transform="translate(74.549 182.323)"/></g><g style="stroke-width:.702003"><path d="m0 0 4.643-1.521-2.107-2.662Zm5.636-9.428L3.629-5.994l3.017 3.81 3.771-1.205 1.369 1.73-13.284 4.098L-2.696.925 4.31-11.104Z" style="fill:#fff;fill-opacity:1;fill-rule:nonzero;stroke:none;stroke-width:.702003" transform="translate(82.227 195.685)"/></g><g style="stroke-width:.702003"><path d="m0 0-1.319 1.433-3.549-3.269L-7.332.838l3.549 3.269-1.26 1.369-3.55-3.269-2.463 2.674 3.549 3.269-1.272 1.382-5.033-4.635 8.78-9.532z" style="fill:#fff;fill-opacity:1;fill-rule:nonzero;stroke:none;stroke-width:.702003" transform="translate(100.035 199.394)"/></g><g style="stroke-width:.702003"><path d="m0 0-3.549 5.193 7.476-2.509 2.062 1.41-7.882 2.523.498 8.127-2.005-1.371-.325-7.924-3.588 5.25-1.65-1.129L-1.65-1.128Z" style="fill:#fff;fill-opacity:1;fill-rule:nonzero;stroke:none;stroke-width:.702003" transform="translate(103.056 201.644)"/></g><g style="stroke-width:.702003"><path d="m0 0-1.488 5.578 4.895 1.306 1.489-5.578 1.914.511-3.34 12.521-1.915-.511 1.337-5.012-4.895-1.306-1.337 5.012-1.948-.52L-1.948-.52Z" style="fill:#fff;fill-opacity:1;fill-rule:nonzero;stroke:none;stroke-width:.702003" transform="translate(122.3 211.33)"/></g><g style="stroke-width:.702003"><path d="m0 0-1.788 12.835-1.997-.278L-1.997-.278Z" style="fill:#fff;fill-opacity:1;fill-rule:nonzero;stroke:none;stroke-width:.702003" transform="translate(133.543 213.698)"/></g><g style="stroke-width:.702003"><path d="M0 0a6.9 6.9 0 0 1 2.179-1.69 6.2 6.2 0 0 1 2.678-.629q2.775-.046 4.631 1.803 1.892 1.882 2.08 4.982l-6.789.11-.032-1.982 4.307-.07Q8.342 1.071 7.262.365 6.234-.308 4.89-.286a4.2 4.2 0 0 0-1.717.407 5 5 0 0 0-1.482 1.058A4.3 4.3 0 0 0 .768 2.71a5.4 5.4 0 0 0-.281 1.849q.016.93.374 1.77A4.5 4.5 0 0 0 1.92 7.862q.613.628 1.429.96a4.6 4.6 0 0 0 1.693.282q1.068-.017 1.907-.427a3.97 3.97 0 0 0 1.496-1.248l2.464-.04q-.799 1.806-2.265 2.777-1.466.955-3.414.986-1.43.023-2.591-.406A6.1 6.1 0 0 1 .496 9.35a6.7 6.7 0 0 1-1.535-2.163A6.8 6.8 0 0 1-1.58 4.61a7.6 7.6 0 0 1 .373-2.505A6.8 6.8 0 0 1 0 0" style="fill:#fff;fill-opacity:1;fill-rule:nonzero;stroke:none;stroke-width:.702003" transform="translate(137.205 216.249)"/></g><g style="stroke-width:.702003"><path d="m0 0 4.963-1.019-1.16-5.654 1.941-.399L8.35 5.623l-1.942.398L5.365.94.402 1.958 1.445 7.04l-1.975.405L-3.136-5.25l1.976-.405Z" style="fill:#fff;fill-opacity:1;fill-rule:nonzero;stroke:none;stroke-width:.702003" transform="translate(153.593 219.013)"/></g><g style="stroke-width:.702003"><path d="M0 0q1.518-.887 3.047-.422Q4.56.05 5.499 1.658q.66 1.13.535 2.281-.096 1.134-.947 2.171l-.642.713a8 8 0 0 0-.617.72q-.3.375-.387.705a1 1 0 0 0-.004.502q.059.205.215.473.41.7 1.024.899.645.181 1.3-.201.579-.34.726-.943.161-.613-.203-1.339l1.607-.938q.77 1.524.46 2.804-.318 1.264-1.613 2.02-1.398.818-2.768.42-1.384-.387-2.237-1.846a3.6 3.6 0 0 1-.413-1.016 2.6 2.6 0 0 1-.023-1.064q.138-.72.554-1.442.377-.619.927-1.181.836-.926 1.013-1.409.241-.68-.254-1.529-.47-.803-1.232-1.016-.764-.212-1.567.257-.744.435-.903 1.186-.16.753.323 1.648l-1.562.912q-.93-1.592-.582-3.113Q-1.428.835 0 0" style="fill:#fff;fill-opacity:1;fill-rule:nonzero;stroke:none;stroke-width:.702003" transform="translate(174.496 205.121)"/></g><g style="stroke-width:.702003"><path d="M0 0a6.8 6.8 0 0 1 .634-2.697A6.2 6.2 0 0 1 2.3-4.866q1.488-1.255 3.233-1.485 1.746-.253 3.564.513L7.252-4.284a4.1 4.1 0 0 0-1.887.035 4.5 4.5 0 0 0-1.756.938 4.2 4.2 0 0 0-1.073 1.4 4.8 4.8 0 0 0-.468 1.745 4.3 4.3 0 0 0 .252 1.771q.305.87.938 1.621a4.7 4.7 0 0 0 1.407 1.136 4.5 4.5 0 0 0 1.79.52 4 4 0 0 0 1.714-.159 4.6 4.6 0 0 0 1.491-.851q.844-.71 1.261-1.58a4.1 4.1 0 0 0 .34-1.977l1.779-1.498q.557 1.918.02 3.634-.537 1.69-2.052 2.967a6.7 6.7 0 0 1-2.211 1.254 6.7 6.7 0 0 1-2.505.263 6.56 6.56 0 0 1-4.604-2.363A7.5 7.5 0 0 1 .395 2.394 6.7 6.7 0 0 1 0 0" style="fill:#fff;fill-opacity:1;fill-rule:nonzero;stroke:none;stroke-width:.702003" transform="translate(181.64 203.253)"/></g><g style="stroke-width:.702003"><path d="m0 0 4.489 3.629 3.186-3.94L3.186-3.94l1.246-1.541 10.077 8.147-1.246 1.541L9.229.946l-3.185 3.94 4.034 3.261-1.267 1.568-10.079-8.147Z" style="fill:#fff;fill-opacity:1;fill-rule:nonzero;stroke:none;stroke-width:.702003" transform="translate(191.044 191.802)"/></g><g style="stroke-width:.702003"><path d="M0 0a4 4 0 0 0 1.533-.811 4.6 4.6 0 0 0 1.059-1.352q.463-.885.534-1.763.056-.885-.304-1.871a4.4 4.4 0 0 0-.843-1.511A4.3 4.3 0 0 0 .666-8.366q-1.817-.951-3.653-.416-1.837.537-2.741 2.261a4.2 4.2 0 0 0-.463 1.703 5 5 0 0 0 .219 1.808q.278.845.905 1.543a5.4 5.4 0 0 0 1.489 1.13 4.7 4.7 0 0 0 1.732.518A4.3 4.3 0 0 0 0 0m-4.522 1.503A7.5 7.5 0 0 1-6.544-.023a6.7 6.7 0 0 1-1.271-2.066q-.506-1.374-.443-2.722a6.2 6.2 0 0 1 .729-2.653 6.44 6.44 0 0 1 1.751-2.118q1.056-.827 2.474-1.233a6.4 6.4 0 0 1 2.439-.162q1.246.147 2.468.787a6.5 6.5 0 0 1 2.049 1.657 6.5 6.5 0 0 1 1.236 2.32q.391 1.294.284 2.541a6.8 6.8 0 0 1-.756 2.445A6.6 6.6 0 0 1 2.853.755 6.5 6.5 0 0 1 .642 1.932a6.6 6.6 0 0 1-2.643.327 6.8 6.8 0 0 1-2.521-.756" style="fill:#fff;fill-opacity:1;fill-rule:nonzero;stroke:none;stroke-width:.702003" transform="translate(207.014 186.41)"/></g><g style="stroke-width:.702003"><path d="M0 0a4.3 4.3 0 0 0 1.76-.586 4.04 4.04 0 0 0 1.315-1.131q.502-.687.733-1.554.255-.966.13-1.837-.144-.875-.712-1.757a4.5 4.5 0 0 0-1.157-1.287 4.3 4.3 0 0 0-1.515-.74q-1.983-.524-3.655.405-1.672.93-2.17 2.813a4.2 4.2 0 0 0-.076 1.762q.151.914.617 1.714.456.764 1.223 1.305a5.4 5.4 0 0 0 1.703.771Q-.922.113 0 0m-2.316 1.882A7.5 7.5 0 0 1-4.626.843 6.7 6.7 0 0 1-6.324-.891a6.9 6.9 0 0 1-1.035-2.555 6.2 6.2 0 0 1 .122-2.749A6.45 6.45 0 0 1-6-8.648q.846-1.041 2.14-1.751a6.4 6.4 0 0 1 2.341-.699 7.1 7.1 0 0 1 2.581.22 6.5 6.5 0 0 1 2.367 1.161 6.6 6.6 0 0 1 1.719 1.988q.669 1.176.84 2.416a6.8 6.8 0 0 1-.194 2.551 6.6 6.6 0 0 1-1.085 2.28 6.5 6.5 0 0 1-1.896 1.637 6.6 6.6 0 0 1-2.503.906 6.8 6.8 0 0 1-2.626-.179" style="fill:#fff;fill-opacity:1;fill-rule:nonzero;stroke:none;stroke-width:.702003" transform="translate(211.97 171.66)"/></g><g style="stroke-width:.702003"><path d="m0 0 1.94.168-.361 4.155 10.971.952-.174 2.009L-.535 6.163Z" style="fill:#fff;fill-opacity:1;fill-rule:nonzero;stroke:none;stroke-width:.702003" transform="translate(207.217 151.02)"/></g><g style="stroke-width:.702003"><path d="M0 0q.352.269 1.491 1.019l.671.423q1.206.779 1.725 1.386.855.976.855 2.305 0 1.697-1.257 2.672-1.173.92-3.049.92-1.458 0-2.497-.622-1.625-1.005-1.625-3.394h2.396q.017.933.251 1.386.42.79 1.559.791.854 0 1.34-.523.435-.452.435-1.16 0-.89-.703-1.569-.47-.467-2.228-1.583l-.252-.185Q-2.731.636-3.384-.594q-.385-.735-.469-2.022h8.628v1.895H-.687Q-.536-.41 0 0" style="fill:#fff;fill-opacity:1;fill-rule:nonzero;stroke:none;stroke-width:.702003" transform="translate(125.138 74.86)"/></g><g style="stroke-width:.702003"><path d="M0 0q-.402-.933-1.458-.934-1.056 0-1.44.934-.352.862-.352 3.11 0 2.305.352 3.168.384.92 1.44.919 1.056 0 1.458-.919.402-.877.402-3.168Q.402.876 0 0m-1.458 8.908q-2.245 0-3.3-1.372-1.073-1.414-1.073-4.426 0-2.983 1.073-4.382 1.055-1.401 3.3-1.401t3.301 1.401Q2.915.127 2.915 3.11q0 3.028-1.072 4.426Q.787 8.907-1.458 8.908" style="fill:#fff;fill-opacity:1;fill-rule:nonzero;stroke:none;stroke-width:.702003" transform="translate(137.771 74.648)"/></g><g style="stroke-width:.702003"><path d="M0 0q-.402-.933-1.458-.934-1.055 0-1.44.934-.352.862-.352 3.11 0 2.305.352 3.168.385.92 1.44.919 1.056 0 1.458-.919.403-.877.402-3.168Q.402.876 0 0m-1.458 8.908q-2.245 0-3.3-1.372Q-5.83 6.122-5.83 3.11q0-2.983 1.072-4.382 1.055-1.401 3.3-1.401t3.301 1.401Q2.915.127 2.915 3.11q0 3.028-1.072 4.426Q.788 8.907-1.458 8.908" style="fill:#fff;fill-opacity:1;fill-rule:nonzero;stroke:none;stroke-width:.702003" transform="translate(148.493 74.648)"/></g><g style="stroke-width:.702003"><path d="M0 0q-.502-.453-1.239-.453-.856 0-1.29.41-.587.524-.587 1.768 0 1.117.653 1.626.453.353 1.14.353.955 0 1.44-.565.504-.552.503-1.583Q.62.536 0 0m2.547 3.167q-.47 1.06-1.323 1.641-1.006.678-2.531.678-1.944 0-3.083-.975-1.222-1.075-1.222-3.083 0-1.556.988-2.545 1.055-1.06 2.832-1.061.753 0 1.323.199.704.225 1.106.735l.016-.057Q.653-2.913 0-3.69q-.535-.665-1.407-.665-.62 0-.989.254-.401.284-.468.834v.014h-2.497q.135-1.3 1.223-2.063 1.072-.764 2.714-.764 1.926 0 3.116 1.216Q3.133-3.409 3.133-.453q0 .975-.083 1.655-.135 1.13-.503 1.965" style="fill:#fff;fill-opacity:1;fill-rule:nonzero;stroke:none;stroke-width:.702003" transform="translate(159.048 78.099)"/></g></g></svg>